<?xml version="1.0" standalone="no"?>
<!DOCTYPE svg PUBLIC "-//W3C//DTD SVG 20010904//EN"
 "http://www.w3.org/TR/2001/REC-SVG-20010904/DTD/svg10.dtd">
<svg version="1.0" xmlns="http://www.w3.org/2000/svg"
 width="3840.000000pt" height="2160.000000pt" viewBox="0 0 3840.000000 2160.000000"
 preserveAspectRatio="xMidYMid meet">

<g transform="translate(0.000000,2160.000000) scale(0.100000,-0.100000)"
fill="#000000" stroke="none">
<path d="M20635 16311 c-49 -7 -94 -29 -258 -132 -81 -51 -385 -346 -483 -469
-37 -47 -99 -121 -138 -165 -40 -44 -85 -98 -101 -119 -38 -52 -96 -108 -170
-164 -113 -87 -266 -235 -290 -282 -47 -93 -46 -100 38 -194 52 -59 80 -99 92
-135 18 -56 19 -56 79 -39 60 17 66 25 66 82 0 104 45 299 89 383 31 61 58 92
220 260 196 202 360 355 434 405 32 22 89 68 125 102 37 34 86 77 110 95 48
38 154 91 180 91 30 0 72 -48 72 -81 0 -42 -37 -74 -192 -169 -142 -87 -263
-191 -417 -361 -53 -58 -139 -144 -191 -190 -215 -190 -243 -233 -261 -398
-11 -93 -10 -114 11 -242 l24 -139 50 97 c71 137 140 205 244 236 83 25 83 24
-13 53 -60 19 -41 69 31 80 24 3 44 8 44 11 0 11 -59 56 -97 74 -23 11 -45 24
-49 30 -13 22 22 38 88 41 l67 3 -26 20 c-61 49 13 111 103 86 23 -6 57 -22
77 -35 27 -19 37 -21 41 -11 3 8 0 15 -6 17 -6 2 -12 16 -13 32 -2 15 -13 38
-24 50 -35 37 -19 127 20 114 8 -3 26 11 42 33 15 21 52 54 83 74 56 38 74 65
74 114 0 67 75 162 137 174 34 6 73 -31 73 -70 0 -33 -44 -121 -129 -261 -34
-56 -75 -137 -91 -180 -15 -42 -47 -115 -69 -162 -55 -114 -65 -171 -26 -142
6 4 30 32 55 62 24 30 63 76 87 102 80 87 138 191 211 374 134 338 134 337
114 604 -8 106 -14 134 -38 184 -16 33 -33 61 -39 62 -5 0 -32 -2 -60 -5z"/>
<path d="M19020 16051 c-77 -25 -231 -121 -325 -203 -44 -39 -106 -88 -138
-110 -84 -57 -233 -183 -259 -219 -32 -43 -385 -322 -513 -405 -27 -17 -65
-48 -84 -68 -31 -32 -33 -36 -15 -42 29 -11 64 -46 64 -65 0 -53 -47 -82 -133
-83 -50 -1 -62 3 -77 22 -10 12 -20 26 -22 32 -2 5 -54 -11 -116 -36 -63 -25
-153 -57 -200 -70 -48 -14 -112 -32 -142 -40 -68 -20 -155 -68 -240 -134 -36
-27 -105 -79 -155 -114 -102 -72 -202 -172 -263 -263 -43 -63 -85 -103 -108
-103 -11 0 -12 -11 -6 -47 3 -27 6 -61 6 -78 -2 -54 -42 -214 -68 -271 -37
-81 -32 -86 21 -24 134 156 288 292 433 384 25 16 88 59 140 96 127 90 187
119 365 175 182 57 290 94 373 130 127 53 282 68 347 33 12 -7 54 -29 92 -49
38 -20 94 -52 124 -71 68 -43 380 -188 405 -188 5 0 32 -12 61 -26 49 -25 53
-26 69 -9 17 16 18 16 33 -3 22 -28 65 -35 216 -37 175 -2 235 3 228 22 -3 8
7 27 22 43 46 48 24 44 -55 -11 -69 -47 -100 -56 -100 -27 0 8 31 45 70 83 38
38 68 71 66 73 -5 4 -123 -55 -158 -79 -14 -11 -33 -19 -42 -19 -40 0 -25 33
61 132 113 130 115 133 66 113 -21 -9 -74 -30 -118 -47 -139 -52 -163 -48
-127 20 10 20 17 43 15 50 -3 7 11 32 31 55 20 23 42 49 49 57 7 8 23 33 35
54 28 48 18 64 -29 47 -73 -25 -97 1 -50 54 16 18 44 55 62 82 73 107 175 241
221 289 39 40 46 53 34 57 -25 10 -19 37 21 86 31 38 34 43 13 30 -14 -8 -54
-33 -90 -54 -36 -22 -83 -52 -104 -67 -21 -15 -49 -28 -62 -28 -58 0 -37 45
81 176 132 146 205 277 221 393 6 46 3 56 -41 138 -76 141 -106 183 -129 182
-12 0 -46 -8 -76 -18z m-145 -640 c3 -5 6 -43 8 -83 2 -65 -2 -81 -31 -140
-36 -74 -104 -142 -194 -196 -62 -37 -88 -35 -88 8 0 26 40 91 73 119 21 17
22 31 2 31 -8 0 -15 8 -15 18 0 9 -12 -8 -26 -38 -39 -85 -104 -139 -240 -199
-126 -55 -136 -58 -152 -38 -14 17 -3 32 31 41 19 5 27 13 27 29 0 12 22 49
48 82 26 33 58 76 70 96 28 46 100 114 179 167 103 70 128 53 88 -56 l-25 -67
26 30 c160 189 200 225 219 196z m-499 -165 c3 -8 -16 -52 -42 -98 -92 -161
-93 -162 -259 -265 -56 -35 -65 -31 -65 30 0 111 68 198 211 272 47 24 92 51
99 60 16 19 49 20 56 1z"/>
<path d="M18776 15279 c-39 -44 -45 -54 -32 -61 28 -15 18 -41 -41 -107 -59
-66 -44 -69 27 -5 64 58 121 176 101 211 -6 11 -19 2 -55 -38z"/>
<path d="M18533 15219 c-34 -27 -81 -76 -103 -109 -23 -33 -55 -76 -72 -96
-17 -19 -29 -36 -27 -39 11 -10 137 63 175 101 38 39 106 176 93 188 -2 2 -32
-18 -66 -45z"/>
<path d="M18210 15119 c-84 -46 -124 -89 -144 -156 -10 -32 3 -29 72 18 45 29
71 57 98 100 20 33 34 62 32 64 -2 2 -28 -10 -58 -26z"/>
<path d="M20561 14987 c-22 -31 -45 -58 -51 -62 -5 -3 -62 -66 -125 -140 -103
-120 -121 -137 -186 -169 -82 -41 -117 -44 -221 -19 -71 17 -71 17 -89 -5 -18
-23 -29 -50 -73 -188 -30 -94 -33 -129 -10 -138 24 -9 84 -7 129 5 51 13 146
27 263 39 70 7 106 17 143 37 73 39 83 56 23 38 -27 -9 -75 -18 -107 -20 -48
-4 -59 -2 -64 12 -8 21 85 110 158 150 55 30 64 46 28 51 -32 5 -18 54 33 111
24 26 71 97 105 158 101 177 122 245 44 140z"/>
<path d="M17630 14339 c-131 -20 -158 -28 -385 -110 -135 -48 -404 -180 -490
-240 -42 -28 -106 -82 -143 -118 -72 -71 -239 -255 -285 -315 -31 -40 -56 -46
-64 -16 -3 11 -7 20 -9 20 -2 0 -30 -19 -62 -42 -31 -24 -77 -52 -101 -62 -39
-18 -46 -19 -70 -5 -20 11 -27 24 -29 53 -2 21 1 43 7 49 6 6 11 20 11 32 0
12 4 25 10 31 5 5 28 52 50 104 l40 95 -49 -51 c-57 -62 -89 -79 -159 -87 -30
-4 -104 -27 -165 -52 -62 -26 -157 -62 -212 -81 -102 -36 -145 -58 -202 -103
l-32 -25 62 -14 c34 -7 86 -17 114 -22 29 -5 69 -16 88 -26 63 -29 84 -107 44
-158 -19 -24 -26 -26 -97 -26 -83 0 -197 28 -312 76 -53 22 -90 29 -199 36
-168 12 -241 5 -306 -30 l-50 -27 1 -60 c1 -52 6 -68 39 -120 33 -50 39 -70
45 -135 5 -58 16 -95 47 -161 46 -98 96 -159 162 -196 66 -38 120 -92 131
-133 5 -19 10 -60 10 -92 0 -51 3 -59 31 -82 17 -14 48 -29 69 -32 49 -8 76
-33 106 -98 15 -33 23 -44 23 -30 1 31 26 87 48 106 10 9 31 18 47 20 27 3 30
9 55 93 34 113 58 163 94 189 60 44 93 -8 192 -305 26 -76 53 -143 62 -151 14
-11 15 -9 11 20 -10 66 19 348 41 396 23 53 58 69 100 45 14 -8 45 -26 69 -39
l42 -24 31 37 c17 20 37 37 45 37 24 0 134 -60 141 -76 4 -11 9 -12 19 -4 7 6
28 10 46 8 26 -2 35 -9 43 -33 5 -16 17 -35 25 -42 8 -6 26 -33 40 -60 14 -26
33 -54 43 -61 9 -7 17 -17 17 -23 0 -5 8 -18 18 -28 65 -71 74 -84 69 -107 -2
-14 -1 -27 3 -29 4 -3 10 -31 14 -63 6 -51 3 -69 -25 -140 -17 -45 -35 -84
-39 -87 -5 -3 0 -15 12 -27 17 -17 19 -28 14 -64 -3 -24 -1 -77 4 -118 6 -51
6 -85 -1 -106 -8 -23 -8 -34 1 -45 22 -26 3 -123 -30 -157 -26 -25 -27 -31
-18 -62 6 -18 8 -49 4 -68 -8 -42 -96 -178 -198 -304 -40 -51 -93 -120 -118
-155 -76 -106 -99 -129 -131 -129 -19 0 -32 6 -36 17 -4 10 -21 29 -37 43 -17
14 -49 45 -71 69 -22 25 -55 61 -73 80 l-34 36 6 -34 c4 -19 28 -80 56 -135
46 -95 100 -242 100 -272 0 -8 20 -34 44 -59 25 -24 69 -82 100 -127 70 -107
98 -132 176 -164 35 -14 69 -33 76 -41 15 -22 141 -10 240 22 95 31 102 35
176 101 41 36 100 74 177 111 112 55 119 60 256 198 77 78 199 206 270 284 72
78 148 153 170 168 95 65 315 267 315 290 0 11 68 73 80 73 5 0 54 44 108 99
55 55 129 117 168 140 38 24 105 65 149 92 89 56 169 83 267 94 65 7 68 6 97
-23 28 -27 30 -33 25 -88 -3 -33 -14 -113 -24 -179 -11 -66 -25 -155 -31 -198
-13 -86 -38 -130 -72 -125 -11 2 -23 10 -28 18 -11 22 -28 115 -35 195 l-6 69
-57 -109 c-31 -61 -71 -132 -88 -160 -17 -27 -50 -83 -73 -123 -51 -90 -96
-142 -121 -142 -43 0 -32 64 36 205 76 159 132 289 140 323 l7 33 -39 -16
c-21 -9 -49 -21 -63 -27 -55 -21 -211 -137 -304 -226 -54 -52 -138 -142 -186
-201 -100 -122 -171 -191 -217 -210 -29 -12 -31 -15 -22 -44 15 -49 19 -372 8
-562 -6 -93 -21 -228 -35 -300 -13 -71 -33 -195 -45 -275 -15 -101 -33 -178
-60 -252 -21 -60 -36 -108 -33 -108 19 0 89 47 130 87 89 87 248 224 347 301
54 41 104 87 112 102 11 21 24 29 57 34 77 13 80 -5 39 -264 -41 -254 -109
-438 -226 -605 -61 -88 -60 -87 -30 -75 49 18 133 96 342 316 211 222 287 310
383 442 77 107 103 95 117 -56 3 -35 -2 -74 -15 -120 -11 -37 -23 -83 -27
-102 -13 -68 -96 -351 -129 -442 -53 -144 -123 -298 -215 -473 -47 -88 -95
-181 -108 -207 -27 -56 -85 -149 -124 -199 -16 -20 -61 -88 -100 -150 -39 -63
-81 -125 -93 -138 -13 -14 -15 -21 -6 -17 8 3 24 9 35 13 98 32 335 194 459
312 106 102 254 292 356 461 26 41 82 131 127 200 44 69 104 177 133 240 74
161 122 261 175 360 25 47 45 95 45 107 0 31 10 53 25 53 7 0 22 17 32 38 27
56 57 55 84 -2 l21 -46 -21 -127 c-20 -122 -98 -385 -173 -588 -17 -44 -66
-188 -110 -320 -73 -221 -92 -266 -245 -575 -92 -184 -190 -373 -218 -420 -28
-47 -63 -114 -79 -150 -35 -80 -221 -453 -248 -498 l-20 -32 24 9 c115 44 358
188 458 273 25 20 80 66 122 101 126 104 202 192 343 402 49 72 112 165 142
207 29 42 70 112 89 155 20 43 47 103 61 133 30 65 157 423 201 565 39 127 66
236 87 350 9 50 38 154 65 232 27 78 49 159 48 180 0 21 16 130 36 243 45 257
60 438 53 655 -6 191 -9 207 -122 495 -31 80 -70 182 -87 228 -18 49 -35 82
-44 82 -20 0 -66 95 -58 124 3 15 1 25 -9 29 -8 3 -17 18 -20 34 -4 15 -30 59
-59 97 -29 38 -68 89 -86 114 -30 42 -33 43 -26 17 4 -17 26 -106 50 -200 62
-249 74 -348 81 -670 6 -295 0 -359 -61 -675 -8 -41 -13 -77 -12 -80 2 -3 -9
-27 -23 -55 -30 -58 -60 -67 -72 -23 -4 15 -3 80 2 145 6 65 11 277 12 471 l2
352 -42 -87 c-50 -104 -167 -383 -181 -433 -6 -19 -22 -66 -36 -105 -14 -38
-26 -82 -26 -98 0 -37 -45 -61 -65 -33 -10 13 -11 25 -3 47 12 35 6 70 -26
159 -13 36 -43 120 -66 188 -24 67 -45 121 -47 118 -3 -2 -9 -35 -14 -73 -5
-37 -16 -113 -25 -168 -9 -55 -17 -113 -18 -130 -1 -34 -27 -44 -62 -23 -42
26 -140 93 -160 111 l-22 18 -85 -163 c-47 -90 -97 -190 -112 -223 -15 -33
-37 -73 -49 -90 -13 -16 -25 -38 -29 -47 -3 -10 -13 -18 -20 -18 -16 0 -47 32
-47 49 0 6 -17 46 -39 89 -39 77 -131 342 -131 375 0 17 -3 17 -37 -4 -173
-104 -244 -151 -290 -193 -104 -94 -114 -59 -99 369 9 272 27 365 71 365 18 0
26 -13 31 -53 8 -50 33 -134 58 -191 22 -50 98 -147 113 -146 4 1 14 31 20 68
19 100 83 290 101 297 26 10 39 -15 82 -165 41 -140 121 -330 139 -330 5 0 12
26 16 58 15 129 39 254 75 377 21 71 46 171 55 222 19 100 39 132 68 110 11
-8 24 -49 38 -117 39 -202 71 -326 105 -415 l34 -90 -5 271 c-4 208 -1 299 10
394 12 96 13 130 4 152 -6 15 -9 35 -5 43 14 38 50 -16 175 -262 71 -142 143
-283 160 -313 l31 -55 0 47 c0 26 -5 82 -11 125 -15 115 -94 495 -123 593 -68
233 -86 339 -57 328 15 -6 145 -161 177 -213 68 -108 147 -249 209 -372 35
-70 65 -121 65 -113 0 55 -34 293 -54 380 -49 201 -161 532 -189 555 -7 6 -23
37 -36 70 -13 33 -30 67 -37 76 -18 21 -18 70 0 95 14 18 20 14 111 -81 53
-55 115 -127 138 -160 22 -33 71 -91 107 -130 37 -38 94 -106 127 -150 33 -44
95 -118 137 -165 42 -47 98 -116 124 -155 l47 -70 3 45 c9 118 -37 436 -87
595 -31 102 -83 229 -101 250 -9 11 -25 40 -34 65 -10 25 -45 78 -78 118 -37
45 -58 78 -54 88 4 11 10 12 24 5 35 -19 132 -132 158 -184 38 -74 87 -140
181 -239 45 -48 90 -102 99 -120 9 -18 49 -70 88 -116 39 -46 85 -104 103
-129 l32 -45 3 33 c2 25 8 34 21 34 13 0 27 -20 49 -73 16 -40 61 -134 99
-210 l69 -137 0 94 c0 114 -33 352 -67 484 -31 119 -27 135 21 107 40 -25 74
-74 122 -178 l35 -77 -5 85 c-9 140 -86 363 -135 389 -37 20 -16 60 24 44 22
-8 4 33 -57 126 -26 41 -48 77 -48 81 0 3 -12 17 -26 31 -15 13 -49 57 -76 97
-35 51 -60 78 -84 88 -19 8 -34 20 -34 28 0 7 -10 17 -22 23 -13 6 -73 48
-135 94 -151 113 -267 174 -393 205 -55 14 -134 38 -174 54 -41 17 -79 30 -85
30 -7 0 -76 26 -154 59 -171 70 -309 118 -397 136 -36 8 -114 30 -175 49 -119
38 -125 39 -259 57 -113 14 -193 6 -298 -31 -46 -16 -135 -45 -198 -65 -63
-19 -137 -46 -165 -59 l-50 -24 190 -1 c206 -2 571 -23 675 -40 36 -5 118 -15
182 -21 67 -6 152 -21 195 -34 43 -13 119 -31 169 -40 188 -34 280 -80 455
-230 41 -34 121 -94 179 -133 77 -52 133 -101 210 -183 58 -62 113 -120 124
-130 20 -21 16 -50 -8 -50 -9 0 -41 16 -72 36 -31 20 -138 76 -238 125 -109
53 -219 115 -276 157 -52 37 -124 81 -160 96 -36 16 -77 37 -92 47 -36 26 -46
24 -21 -3 30 -33 102 -149 210 -336 51 -89 116 -196 142 -237 27 -41 75 -125
107 -187 31 -62 65 -124 76 -137 17 -23 17 -26 3 -40 -15 -15 -23 -9 -88 64
-107 121 -188 197 -290 274 -228 173 -286 225 -400 361 l-37 45 6 -40 c4 -22
18 -71 31 -110 14 -38 45 -124 68 -190 23 -66 52 -146 64 -177 29 -79 31 -121
7 -126 -10 -2 -21 0 -25 5 -3 4 -27 19 -53 32 -52 26 -81 72 -93 146 -15 94
-11 91 -53 53 -20 -18 -91 -73 -157 -123 -66 -49 -147 -117 -181 -150 -73 -73
-380 -332 -513 -434 -53 -40 -110 -85 -126 -100 -17 -14 -47 -35 -68 -46 -34
-18 -38 -18 -53 -3 -13 13 -14 20 -4 39 22 42 191 302 240 369 26 36 59 91 73
123 15 32 39 71 54 86 16 15 43 47 61 70 l34 42 -28 42 c-51 79 -288 287 -326
287 -22 0 -43 28 -76 100 -39 87 -96 157 -184 226 -40 31 -96 80 -124 109 -28
29 -96 79 -150 111 -55 32 -161 100 -237 151 -77 51 -146 93 -154 93 -8 0 -70
22 -136 49 -67 26 -135 51 -152 55 -16 4 -55 22 -85 41 -30 18 -107 58 -170
90 -63 32 -133 68 -155 80 -22 13 -67 30 -99 39 -102 26 -114 66 -27 92 23 7
59 24 79 38 20 14 69 39 107 56 39 17 89 40 113 51 24 11 110 35 190 55 156
37 236 74 274 127 21 30 53 36 62 11 3 -9 6 -33 6 -55 0 -30 4 -39 18 -39 26
0 162 33 162 39 0 3 -18 14 -40 23 -74 31 -94 127 -43 204 41 64 162 83 268
43 62 -23 110 -66 140 -125 10 -21 20 -41 22 -43 1 -2 15 1 30 7 107 40 129
43 205 27 40 -9 89 -24 109 -34 l36 -19 14 31 c16 37 72 77 106 77 34 0 50
-39 35 -89 -7 -21 -12 -41 -12 -45 0 -3 25 -6 55 -6 31 0 88 -6 128 -14 40 -8
119 -22 177 -31 58 -9 137 -25 175 -35 39 -10 102 -23 140 -30 186 -31 429
-81 507 -104 29 -8 73 -28 98 -43 25 -16 70 -37 100 -47 30 -11 65 -26 78 -34
26 -17 27 -14 6 38 -13 32 -15 58 -10 121 l7 80 -30 27 c-35 30 -36 36 -17 75
18 32 19 32 -43 7 -65 -25 -128 -71 -158 -115 -25 -37 -56 -50 -101 -42 -47 8
-209 56 -417 123 -138 44 -239 70 -325 83 -139 22 -150 25 -202 59 -47 30 -64
76 -42 109 23 36 41 38 93 12 25 -13 53 -23 61 -22 8 1 62 -2 120 -8 58 -6
149 -14 203 -19 84 -8 116 -16 235 -65 169 -69 187 -74 149 -43 -56 46 -777
419 -857 443 -14 4 -56 21 -94 37 -115 50 -286 69 -426 47z"/>
<path d="M20585 14330 c-2 -3 -4 -19 -6 -36 -3 -25 4 -37 38 -68 25 -22 49
-56 59 -84 10 -26 21 -52 26 -58 5 -7 27 -63 48 -125 158 -451 186 -595 140
-731 -28 -86 -81 -186 -122 -232 l-36 -42 36 -47 c20 -26 44 -47 52 -47 9 0
37 -14 63 -31 41 -27 56 -31 129 -33 68 -2 101 -9 178 -39 52 -20 112 -37 133
-37 49 0 177 -53 211 -87 48 -48 30 -136 -39 -189 -52 -40 -46 -88 22 -170 47
-56 107 -95 198 -129 71 -27 211 -99 275 -142 19 -13 43 -23 53 -23 9 0 21
-10 26 -23 5 -13 16 -29 24 -36 9 -7 23 -32 32 -56 23 -60 8 -123 -56 -239
-60 -107 -85 -136 -115 -136 -27 0 -57 27 -50 46 3 7 -2 18 -10 24 -8 7 -14
28 -14 47 0 28 6 37 31 51 67 37 66 35 43 84 -12 23 -43 69 -68 101 -52 63
-104 94 -223 133 -86 28 -186 77 -275 134 -86 56 -100 82 -53 100 14 5 25 13
25 16 0 12 -62 93 -112 149 -27 28 -48 57 -48 63 0 22 45 42 95 42 46 0 75 12
75 31 0 3 -21 12 -47 19 -27 7 -93 30 -149 51 -56 21 -139 44 -185 53 -112 19
-263 80 -306 123 -72 73 -90 144 -64 258 34 151 44 184 82 261 35 72 40 94 46
176 4 63 2 107 -7 134 -20 63 -104 233 -116 234 -6 0 -19 -9 -29 -20 -27 -30
-17 -148 18 -217 49 -97 27 -171 -62 -206 l-39 -16 25 -72 c33 -95 24 -119
-42 -119 l-45 0 17 -37 c9 -21 17 -60 17 -87 1 -65 -17 -77 -79 -55 -25 9 -45
14 -45 10 1 -10 51 -75 111 -143 63 -71 109 -147 109 -177 0 -27 -32 -28 -69
-2 l-27 20 25 -74 c25 -71 25 -75 8 -92 -17 -17 -20 -17 -73 12 -30 17 -93 61
-140 98 l-85 68 43 -82 c28 -52 65 -104 104 -143 33 -34 86 -93 117 -132 31
-38 79 -89 107 -113 75 -63 109 -143 169 -396 23 -97 26 -136 12 -151 -5 -5
-3 -35 5 -69 8 -38 13 -135 13 -262 1 -170 -1 -204 -15 -217 -16 -17 -48 -8
-56 15 -2 7 -4 -23 -4 -67 1 -67 -2 -84 -21 -109 -40 -53 -66 -176 -67 -310
-1 -114 1 -125 37 -226 20 -58 37 -120 37 -138 0 -39 16 -71 34 -71 23 0 25
-24 16 -132 -18 -216 -84 -532 -154 -733 -19 -55 -50 -172 -70 -260 -35 -158
-87 -330 -120 -393 -12 -24 -23 -32 -43 -32 l-26 0 7 140 c8 164 27 322 61
515 35 200 74 473 81 571 l7 84 -26 0 c-19 0 -28 6 -32 23 -3 12 -7 139 -10
282 -6 339 -10 358 -46 190 -59 -274 -121 -665 -125 -780 -1 -33 -7 -80 -13
-105 -6 -25 -11 -89 -11 -142 0 -175 -79 -584 -160 -833 -44 -137 -93 -315
-115 -424 -9 -41 -22 -97 -30 -125 -8 -28 -24 -100 -36 -161 -11 -60 -36 -157
-54 -215 -18 -58 -49 -164 -69 -237 -19 -72 -53 -180 -76 -240 -23 -59 -65
-176 -95 -259 -29 -83 -63 -171 -74 -195 -35 -73 198 177 347 371 312 408 304
394 438 762 13 37 29 91 34 120 13 68 61 232 111 378 21 63 52 160 68 215 16
55 54 173 85 263 42 121 56 171 51 193 -5 20 0 43 14 73 43 88 70 308 82 661
5 164 14 302 20 318 7 16 19 27 30 27 26 0 95 -96 159 -221 28 -57 87 -162
131 -235 88 -147 139 -252 205 -424 24 -63 58 -144 75 -180 17 -35 51 -119 76
-185 60 -163 123 -287 123 -244 0 58 -85 575 -109 665 -30 109 -134 406 -187
534 -15 36 -49 128 -76 205 -26 77 -57 151 -68 165 -51 64 -53 68 -40 100 7
16 20 32 30 35 10 3 66 -19 136 -54 146 -74 273 -180 651 -545 l103 -100 0 63
c0 145 -110 463 -248 716 -133 245 -153 286 -150 308 2 16 9 21 24 19 12 -2
24 4 27 13 7 16 62 21 71 6 3 -5 16 -11 28 -14 13 -3 57 -18 98 -35 162 -64
339 -135 417 -168 114 -48 213 -66 363 -64 161 3 410 -14 438 -29 30 -16 65
-132 57 -187 -3 -22 -19 -68 -35 -103 -16 -34 -35 -92 -41 -129 -15 -84 -75
-266 -135 -408 -25 -60 -67 -163 -94 -229 -26 -66 -81 -193 -123 -282 -75
-160 -97 -223 -80 -223 5 0 52 35 104 78 52 43 148 116 214 162 151 105 409
357 480 470 26 41 81 147 122 234 150 323 186 457 203 746 6 107 16 220 22
250 6 34 8 95 3 160 -4 58 -8 182 -9 275 -1 125 -6 186 -19 231 -9 34 -21 88
-26 120 -14 88 -75 324 -94 360 -19 37 -94 114 -193 200 -68 60 -188 128 -269
154 -88 28 -98 72 -35 153 l40 52 -23 19 c-12 10 -47 30 -77 43 -30 13 -77 35
-105 48 -27 14 -88 41 -133 59 -111 46 -129 59 -142 103 -10 33 -8 47 12 102
l24 65 -75 36 c-42 20 -94 43 -116 50 -22 7 -90 39 -152 72 -62 32 -123 58
-136 58 -33 0 -153 43 -175 63 -10 10 -25 36 -32 58 -14 41 -14 42 15 65 25
20 28 26 15 34 -8 5 -21 10 -28 10 -30 0 -140 59 -165 89 -31 38 -32 46 -12
85 9 16 13 31 11 34 -3 2 -62 4 -133 4 -134 -1 -282 19 -319 43 -58 37 -32
113 80 232 42 45 73 83 69 86 -4 2 -44 12 -88 22 -71 15 -196 52 -445 131
-100 32 -140 57 -140 88 0 14 7 31 15 40 13 13 13 15 -3 20 -22 7 -322 4 -327
-4z m1493 -3024 c54 -30 122 -64 152 -76 30 -11 98 -43 150 -70 52 -27 172
-88 265 -135 183 -92 215 -118 215 -175 0 -31 -10 -44 -81 -113 -45 -43 -102
-89 -128 -104 -25 -15 -54 -35 -64 -45 -36 -37 -56 -23 -267 174 -180 169
-259 268 -337 422 -66 131 -66 132 -41 156 12 11 26 20 31 20 5 0 52 -24 105
-54z"/>
<path d="M22017 11226 c55 -111 135 -224 220 -311 124 -127 290 -275 308 -275
34 0 124 62 194 131 39 39 71 77 71 83 0 24 -47 55 -190 125 -80 39 -183 91
-230 116 -47 24 -158 80 -247 123 l-162 79 36 -71z"/>
<path d="M19808 14203 c6 -2 18 -2 25 0 6 3 1 5 -13 5 -14 0 -19 -2 -12 -5z"/>
<path d="M19355 14106 c-88 -30 -207 -64 -265 -75 -58 -12 -116 -25 -130 -28
-64 -16 81 -24 495 -30 273 -3 445 -9 453 -15 6 -6 12 -21 12 -33 0 -19 -17
-30 -107 -70 -165 -73 -198 -97 -155 -112 9 -3 50 -21 90 -39 93 -42 94 -57
10 -116 -35 -25 -78 -50 -96 -57 -39 -16 -52 -53 -31 -90 17 -30 138 -125 187
-146 40 -18 249 -31 318 -20 l49 7 -142 48 c-211 69 -305 141 -226 171 15 5
88 14 162 20 186 14 243 20 239 25 -3 2 -59 10 -126 18 -140 16 -207 44 -207
85 0 29 26 38 232 81 169 36 207 49 284 96 63 38 74 49 34 34 -14 -5 -71 -17
-128 -25 -56 -9 -151 -25 -211 -37 -173 -32 -307 -20 -293 27 5 14 60 40 142
65 72 23 331 141 420 191 28 16 64 40 80 54 l30 26 -125 -6 c-69 -3 -168 -12
-220 -20 -146 -22 -398 -20 -488 5 -39 11 -84 20 -99 19 -16 0 -100 -24 -188
-53z"/>
<path d="M17583 13630 c-33 -13 -222 -49 -348 -65 -60 -8 -146 -26 -190 -39
-44 -14 -150 -41 -235 -61 -85 -20 -179 -49 -209 -64 l-54 -28 37 -22 c20 -13
45 -40 56 -60 25 -50 57 -69 143 -86 147 -28 207 -46 289 -85 94 -44 253 -75
267 -51 8 12 22 15 166 26 122 10 186 32 286 96 50 32 125 73 167 90 68 29 90
33 189 37 101 4 230 -7 292 -24 49 -14 9 18 -71 56 -70 34 -317 119 -391 135
-36 7 -79 50 -75 73 4 20 37 24 94 10 70 -17 85 -3 19 17 -33 10 -86 26 -118
36 -43 14 -86 19 -175 18 -64 0 -127 -4 -139 -9z"/>
<path d="M18260 13586 c0 -2 37 -30 83 -62 90 -63 181 -134 261 -204 87 -77
175 -127 261 -150 44 -12 114 -33 155 -47 41 -13 99 -31 129 -39 29 -8 78 -26
110 -40 75 -34 276 -103 329 -115 42 -8 146 -39 187 -55 13 -5 5 8 -22 39 -48
52 -56 90 -23 107 15 8 63 8 172 1 83 -6 154 -9 157 -5 10 9 -89 96 -103 91
-26 -10 -203 22 -321 58 -107 33 -186 54 -365 98 -150 37 -293 87 -472 162
-139 59 -227 90 -300 105 -57 12 -130 31 -163 41 -62 19 -75 22 -75 15z"/>
<path d="M17355 12851 c-6 -10 58 -56 210 -149 50 -30 122 -85 161 -121 65
-60 131 -118 270 -233 29 -24 73 -67 99 -95 26 -29 50 -53 54 -53 4 0 12 43
19 96 15 131 47 175 90 122 9 -11 37 -44 62 -72 25 -28 52 -62 60 -75 16 -23
16 -21 34 60 19 89 37 129 60 129 8 0 28 -22 44 -48 28 -46 81 -96 129 -121
l22 -11 -18 42 c-51 120 -74 309 -40 331 12 7 23 5 45 -11 16 -12 81 -39 144
-61 63 -21 149 -53 190 -70 l75 -32 -65 65 c-39 40 -88 77 -125 95 -67 33
-338 104 -455 119 -41 5 -122 16 -180 25 -58 9 -150 21 -205 27 -55 6 -152 18
-215 25 -63 8 -188 14 -276 13 -89 0 -167 2 -172 6 -6 3 -13 2 -17 -3z"/>
<path d="M18787 12234 c-10 -54 -22 -91 -32 -96 -8 -5 -15 -16 -15 -25 0 -12
-7 -14 -34 -10 -25 4 -36 1 -40 -9 -3 -8 -16 -14 -29 -14 -18 0 -28 10 -43 42
l-19 42 -7 -57 c-12 -97 -45 -138 -81 -102 -8 8 -38 28 -66 45 l-52 30 6 -34
c9 -48 -2 -76 -29 -76 -12 0 -28 6 -35 13 -14 14 -11 5 34 -87 22 -48 28 -72
27 -125 l-1 -66 31 38 c37 46 141 132 262 217 98 68 117 88 159 163 33 60 34
87 4 151 l-23 49 -17 -89z"/>
<path d="M20341 10604 c0 -11 3 -14 6 -6 3 7 2 16 -1 19 -3 4 -6 -2 -5 -13z"/>
<path d="M21890 10512 c0 -4 25 -51 56 -103 31 -51 81 -148 111 -214 30 -66
69 -149 88 -185 69 -135 111 -325 94 -430 -5 -30 -7 -68 -6 -85 2 -29 0 -30
-42 -33 -56 -4 -205 31 -295 70 -79 34 -137 73 -255 173 -85 71 -221 170 -221
160 0 -3 22 -49 49 -103 26 -53 56 -118 66 -144 10 -27 24 -48 31 -48 25 0 53
-43 64 -99 17 -89 67 -302 115 -486 60 -232 72 -309 85 -530 6 -104 13 -210
16 -235 6 -51 52 -221 62 -232 7 -7 59 85 215 377 92 175 90 171 134 192 60
28 61 26 68 -327 3 -173 13 -377 21 -454 16 -152 44 -326 53 -326 8 0 29 56
116 305 215 619 222 636 288 665 23 11 64 20 91 20 37 0 47 3 43 14 -3 7 -8
33 -12 57 -5 37 -3 48 13 62 16 15 27 16 60 9 23 -6 56 -7 74 -3 35 7 29 -3
93 166 13 33 34 98 48 145 45 149 45 134 1 125 -46 -8 -175 -76 -374 -195 -80
-48 -167 -95 -195 -103 -76 -24 -148 -31 -189 -17 -30 10 -36 16 -36 40 0 16
7 51 16 77 9 26 27 91 39 143 41 169 82 313 120 410 20 52 45 124 57 160 11
36 30 85 43 110 61 122 241 567 237 587 -1 6 2 14 8 18 19 11 10 26 -23 40
-25 10 -61 12 -152 7 -194 -11 -298 6 -530 90 -77 27 -181 70 -231 94 -91 44
-114 51 -114 36z"/>
<path d="M18760 10102 c0 -5 14 -19 32 -32 l31 -23 -19 26 c-19 27 -44 43 -44
29z"/>
<path d="M20935 9444 c-20 -67 -51 -270 -61 -389 -13 -168 -106 -622 -174
-845 -40 -131 -107 -418 -120 -515 -21 -150 -71 -356 -130 -533 -108 -329
-227 -656 -277 -767 -27 -60 -73 -175 -102 -255 -77 -212 -200 -457 -265 -528
-29 -31 -59 -68 -66 -81 -12 -24 -12 -24 29 -18 26 3 81 29 146 67 115 69 183
135 340 325 155 190 233 319 325 540 32 77 79 187 105 245 146 327 294 879
346 1290 17 134 18 676 2 900 -22 308 -51 568 -66 596 l-15 28 -17 -60z"/>
<path d="M21390 8475 c-1 -48 -24 -327 -36 -430 -8 -71 -19 -193 -25 -270 -5
-77 -18 -205 -29 -285 -29 -212 -59 -502 -71 -685 -6 -102 -22 -221 -43 -330
-44 -224 -48 -245 -42 -245 5 0 106 121 203 242 100 126 143 213 188 378 32
118 112 416 143 530 33 119 35 270 9 510 -22 202 -44 264 -139 405 -64 95
-158 201 -158 180z"/>
</g>
</svg>
